<svg width="60" height="64" viewBox="0 0 60 64" fill="none" xmlns="http://www.w3.org/2000/svg">
<g clip-path="url(#clip0_162_148)">
<path fill-rule="evenodd" clip-rule="evenodd" d="M3.75 32C3.75 39.4261 6.51562 46.548 11.4384 51.799C16.3613 57.05 23.0381 60 30 60C36.9619 60 43.6387 57.05 48.5616 51.799C53.4844 46.548 56.25 39.4261 56.25 32C56.25 24.5739 53.4844 17.452 48.5616 12.201C43.6387 6.94999 36.9619 4 30 4C23.0381 4 16.3613 6.94999 11.4384 12.201C6.51562 17.452 3.75 24.5739 3.75 32ZM60 32C60 40.4869 56.8393 48.6263 51.2132 54.6274C45.5871 60.6286 37.9565 64 30 64C22.0435 64 14.4129 60.6286 8.7868 54.6274C3.16071 48.6263 0 40.4869 0 32C0 23.5131 3.16071 15.3737 8.7868 9.37258C14.4129 3.37142 22.0435 0 30 0C37.9565 0 45.5871 3.37142 51.2132 9.37258C56.8393 15.3737 60 23.5131 60 32ZM43.125 30C43.6223 30 44.0992 30.2107 44.4508 30.5858C44.8025 30.9609 45 31.4696 45 32C45 32.5304 44.8025 33.0391 44.4508 33.4142C44.0992 33.7893 43.6223 34 43.125 34H21.4012L29.4525 42.584C29.6268 42.77 29.7651 42.9907 29.8595 43.2337C29.9538 43.4766 30.0024 43.737 30.0024 44C30.0024 44.263 29.9538 44.5234 29.8595 44.7663C29.7651 45.0093 29.6268 45.23 29.4525 45.416C29.2782 45.602 29.0712 45.7495 28.8434 45.8501C28.6157 45.9507 28.3715 46.0025 28.125 46.0025C27.8785 46.0025 27.6343 45.9507 27.4066 45.8501C27.1788 45.7495 26.9718 45.602 26.7975 45.416L15.5475 33.416C15.3729 33.2302 15.2344 33.0095 15.1398 32.7665C15.0453 32.5236 14.9966 32.2631 14.9966 32C14.9966 31.7369 15.0453 31.4764 15.1398 31.2335C15.2344 30.9905 15.3729 30.7698 15.5475 30.584L26.7975 18.584C27.1496 18.2085 27.6271 17.9975 28.125 17.9975C28.6229 17.9975 29.1004 18.2085 29.4525 18.584C29.8046 18.9595 30.0024 19.4689 30.0024 20C30.0024 20.5311 29.8046 21.0405 29.4525 21.416L21.4012 30H43.125Z" fill="black"/>
</g>
<defs>
<clipPath id="clip0_162_148">
<rect width="60" height="64" fill="white"/>
</clipPath>
</defs>
</svg>